<svg width="70" height="42" viewBox="0 0 70 42" fill="none" xmlns="http://www.w3.org/2000/svg">
<g clip-path="url(#clip0_43_255)">
<path d="M69.629 36.0686C69.5443 35.8859 69.4652 35.7343 69.3917 35.6129C68.1772 33.4256 65.8563 30.7408 62.4305 27.5577L62.3581 27.4848L62.322 27.4491L62.2853 27.4125H62.2485C60.6935 25.9303 59.709 24.9337 59.2966 24.4235C58.5424 23.4515 58.3734 22.4677 58.7857 21.4708C59.0769 20.7177 60.1713 19.1271 62.0659 16.697C63.0623 15.409 63.8516 14.3768 64.4347 13.5992C68.6385 8.01048 70.461 4.43923 69.9017 2.88404L69.6847 2.52061C69.5387 2.30181 69.1621 2.10164 68.5552 1.9191C67.9473 1.73694 67.1699 1.70681 66.2221 1.82821L55.7259 1.90072C55.5558 1.84046 55.313 1.84608 54.9969 1.9191C54.6809 1.99212 54.5227 2.02875 54.5227 2.02875L54.34 2.12003L54.195 2.22968C54.0736 2.30219 53.9399 2.42972 53.794 2.612C53.6487 2.79366 53.5276 3.00684 53.4303 3.24976C52.2876 6.18975 50.9883 8.92322 49.5303 11.45C48.6311 12.9567 47.8055 14.2625 47.0516 15.3681C46.2984 16.4733 45.6666 17.2876 45.1567 17.8096C44.646 18.3321 44.1854 18.7507 43.7713 19.0668C43.3583 19.3832 43.043 19.5168 42.8242 19.4679C42.6055 19.4191 42.3993 19.3705 42.204 19.322C41.8642 19.1032 41.5908 18.8057 41.3847 18.4291C41.1775 18.0525 41.0382 17.5785 40.9654 17.0075C40.8926 16.4361 40.8499 15.9447 40.8377 15.5315C40.8261 15.1188 40.8313 14.535 40.8562 13.7818C40.8814 13.0283 40.8926 12.5185 40.8926 12.2512C40.8926 11.3277 40.9108 10.3255 40.9468 9.24427C40.9836 8.16302 41.0133 7.30636 41.0382 6.67524C41.063 6.04345 41.0746 5.37509 41.0746 4.67043C41.0746 3.96578 41.0315 3.41316 40.9468 3.01207C40.8632 2.61149 40.7348 2.22266 40.5653 1.8457C40.3949 1.46912 40.1454 1.17781 39.8181 0.971016C39.4902 0.76447 39.0824 0.600562 38.5973 0.478783C37.3093 0.187348 35.6692 0.0296953 33.6765 0.00518578C29.1574 -0.0433226 26.2537 0.248493 24.9659 0.880254C24.4557 1.14718 23.9939 1.51188 23.5811 1.97322C23.1436 2.50797 23.0826 2.79978 23.3984 2.84778C24.8565 3.0662 25.8887 3.58869 26.4962 4.41473L26.7152 4.85247C26.8854 5.16828 27.0555 5.7274 27.2256 6.52908C27.3955 7.33072 27.5052 8.21755 27.5534 9.18897C27.6747 10.963 27.6747 12.4816 27.5534 13.7448C27.4318 15.0086 27.3169 15.9924 27.2073 16.6971C27.0976 17.4017 26.9337 17.9727 26.7152 18.4099C26.4962 18.8473 26.3506 19.1146 26.2775 19.2116C26.2046 19.3086 26.1439 19.3698 26.0956 19.3937C25.7798 19.5148 25.4514 19.5764 25.1114 19.5764C24.771 19.5764 24.3581 19.4061 23.8723 19.0658C23.3866 18.7255 22.8825 18.258 22.36 17.6626C21.8375 17.0672 21.2483 16.235 20.592 15.166C19.9362 14.097 19.2558 12.8336 18.5512 11.3758L17.9682 10.3186C17.6037 9.63844 17.1059 8.64812 16.4741 7.34846C15.842 6.04832 15.2832 4.79066 14.7975 3.57578C14.6033 3.06556 14.3116 2.67711 13.923 2.4098L13.7405 2.30015C13.6193 2.20313 13.4246 2.10011 13.1575 1.99033C12.8901 1.88068 12.6111 1.80204 12.3192 1.75366L2.333 1.82617C1.31254 1.82617 0.620144 2.05735 0.255563 2.51907L0.109655 2.73749C0.0367644 2.85914 0 3.05343 0 3.32087C0 3.58817 0.0728903 3.91626 0.218799 4.30469C1.6766 7.73094 3.26194 11.0353 4.9748 14.2182C6.68766 17.4011 8.1761 19.965 9.43922 21.9077C10.7026 23.8517 11.9904 25.6865 13.3026 27.4111C14.6147 29.1363 15.4833 30.2419 15.9082 30.7276C16.3337 31.2143 16.6679 31.5781 16.9108 31.821L17.8221 32.6955C18.4053 33.2788 19.2615 33.9773 20.3914 34.7911C21.5215 35.6055 22.7727 36.407 24.1455 37.1973C25.5185 37.9866 27.1159 38.6302 28.9383 39.1283C30.7606 39.6267 32.5342 39.8269 34.2595 39.7303H38.451C39.3008 39.6567 39.9448 39.3897 40.3826 38.9284L40.5275 38.7457C40.6252 38.6005 40.7165 38.3754 40.8005 38.072C40.8859 37.7685 40.9283 37.4339 40.9283 37.0699C40.9035 36.0252 40.9829 35.0837 41.1649 34.2456C41.3465 33.4077 41.5534 32.776 41.7851 32.3505C42.0164 31.9254 42.2775 31.5667 42.5684 31.2759C42.8596 30.9845 43.0672 30.8079 43.1889 30.7472C43.3101 30.686 43.4067 30.6445 43.4795 30.6196C44.0625 30.4254 44.7489 30.6135 45.5392 31.185C46.3292 31.756 47.0701 32.461 47.7627 33.299C48.4554 34.1376 49.2873 35.0788 50.2589 36.1232C51.2316 37.1683 52.0817 37.9449 52.8101 38.4559L53.5388 38.8934C54.0257 39.185 54.6574 39.4524 55.4351 39.6953C56.2114 39.9382 56.8914 39.9991 57.4752 39.8776L66.8052 39.732C67.7281 39.732 68.446 39.5791 68.9552 39.276C69.4659 38.9722 69.769 38.6376 69.8667 38.2739C69.9643 37.9096 69.9696 37.4962 69.8852 37.0339C69.7987 36.5729 69.7137 36.2506 69.629 36.0686Z" fill="black"/>
</g>
<defs>
<clipPath id="clip0_43_255">
<rect width="70" height="42" fill="white"/>
</clipPath>
</defs>
</svg>
