<svg width="62" height="62" viewBox="0 0 62 62" fill="none" xmlns="http://www.w3.org/2000/svg">
<g clip-path="url(#clip0_39_244)">
<path d="M18.7369 47.7762L20.6072 48.869C23.7613 50.7085 27.3487 51.6742 31 51.6667C35.0875 51.6667 39.0832 50.4547 42.4818 48.1838C45.8804 45.9129 48.5293 42.6852 50.0935 38.9089C51.6577 35.1325 52.067 30.9772 51.2696 26.9682C50.4721 22.9593 48.5038 19.2768 45.6135 16.3865C42.7232 13.4963 39.0408 11.5279 35.0319 10.7305C31.0229 9.93309 26.8675 10.3424 23.0912 11.9066C19.3149 13.4708 16.0872 16.1197 13.8163 19.5183C11.5454 22.9169 10.3333 26.9126 10.3333 31.0001C10.3333 34.7097 11.3072 38.267 13.1337 41.3954L14.2238 43.2657L12.5369 49.4683L18.7369 47.7762ZM5.17699 56.8334L8.66966 43.9994C6.36827 40.0543 5.15916 35.5674 5.16666 31.0001C5.16666 16.7323 16.7322 5.16675 31 5.16675C45.2677 5.16675 56.8333 16.7323 56.8333 31.0001C56.8333 45.2678 45.2677 56.8334 31 56.8334C26.4347 56.8408 21.9497 55.6326 18.0058 53.333L5.17699 56.8334ZM21.6767 18.8791C22.0229 18.8532 22.3717 18.8532 22.7178 18.8687C22.8573 18.8791 22.9968 18.8946 23.1363 18.9101C23.5471 18.9566 23.9992 19.2072 24.1516 19.5533C24.9214 21.2997 25.6706 23.0589 26.3939 24.8233C26.5541 25.216 26.4585 25.7197 26.1537 26.2106C25.944 26.5425 25.7172 26.8632 25.4742 27.1716C25.1823 27.5462 24.5546 28.2333 24.5546 28.2333C24.5546 28.2333 24.2988 28.5382 24.397 28.9179C24.4332 29.0626 24.552 29.2718 24.6605 29.4475L24.8129 29.6929C25.4742 30.796 26.3629 31.9146 27.4479 32.9686C27.7579 33.2682 28.0602 33.5757 28.3857 33.8624C29.5947 34.9293 30.9638 35.7999 32.4415 36.4457L32.4544 36.4509C32.674 36.5465 32.7851 36.5982 33.1054 36.7351C33.2656 36.8022 33.4309 36.8617 33.5988 36.9056C33.7723 36.9498 33.9551 36.9415 34.1239 36.8817C34.2927 36.8219 34.4399 36.7133 34.5469 36.5697C36.4172 34.3042 36.5877 34.1569 36.6032 34.1569V34.1621C36.7332 34.0409 36.8875 33.9489 37.056 33.8923C37.2244 33.8357 37.403 33.8158 37.5797 33.834C37.7347 33.8443 37.8923 33.8727 38.037 33.9373C39.4087 34.5651 41.6537 35.5442 41.6537 35.5442L43.1572 36.2184C43.4103 36.3398 43.6402 36.6266 43.648 36.903C43.6583 37.0761 43.6738 37.3551 43.6144 37.8666C43.5317 38.5357 43.3302 39.3391 43.1287 39.7602C42.9907 40.0475 42.8076 40.3109 42.5862 40.5403C42.3256 40.814 42.0402 41.0631 41.7337 41.2843C41.6277 41.3641 41.5201 41.4416 41.4108 41.5168C41.0895 41.7207 40.7594 41.9103 40.4214 42.0852C39.7563 42.4385 39.0217 42.6413 38.2695 42.6793C37.7916 42.7052 37.3137 42.7413 36.8332 42.7155C36.8125 42.7155 35.3658 42.4907 35.3658 42.4907C31.693 41.5247 28.2962 39.7149 25.4458 37.2052C24.862 36.6912 24.3221 36.1383 23.7692 35.5881C21.4701 33.3018 19.7341 30.8347 18.6801 28.5046C18.1406 27.3609 17.8492 26.116 17.825 24.8517C17.8143 23.2833 18.3271 21.7561 19.282 20.5117C19.4706 20.2689 19.6488 20.0157 19.9562 19.7238C20.2843 19.4138 20.491 19.2485 20.7157 19.1348C21.0146 18.9851 21.3406 18.8972 21.6742 18.8765L21.6767 18.8791Z" fill="black"/>
</g>
<defs>
<clipPath id="clip0_39_244">
<rect width="62" height="62" fill="white"/>
</clipPath>
</defs>
</svg>
